<svg width="1440" height="2111" viewBox="0 0 1440 2111" fill="none" xmlns="http://www.w3.org/2000/svg">
<g clip-path="url(#clip0_2117_143771)">
<rect width="1440" height="2111" fill="url(#paint0_linear_2117_143771)"/>
<g opacity="0.18">
<path d="M-271.751 171.142H251.034C256.113 171.142 260.927 173.368 264.217 177.217L264.53 177.594L628.234 628.332C639.861 642.74 663.134 634.516 663.134 616.001V188.491C663.134 179.052 670.695 171.375 680.027 171.438L680.474 171.447C974.696 181.196 1210.22 422.863 1210.22 719.556C1210.22 998.294 1002.34 1228.47 733.201 1263.38L730.032 1263.79C714.528 1265.71 706.244 1283.84 715.577 1296.29L716.035 1296.88L1081.35 1749.61C1090.5 1760.96 1082.43 1777.86 1067.85 1777.86H545.093C540.015 1777.86 535.201 1775.63 531.911 1771.78L531.598 1771.41L162.132 1313.56C150.505 1299.15 127.232 1307.37 127.232 1325.89V1760.51C127.232 1769.95 119.67 1777.63 110.338 1777.56L109.893 1777.55C-184.33 1767.8 -419.858 1526.14 -419.858 1229.45C-419.858 948.987 -209.398 717.697 62.1553 684.993L65.3525 684.617C80.9595 682.83 89.3966 664.595 80.0137 652.076L79.5537 651.485L-285.247 199.389C-294.404 188.041 -286.328 171.142 -271.751 171.142ZM1348.3 1276.58C1486.68 1276.58 1598.86 1388.79 1598.86 1527.22C1598.86 1665.64 1486.68 1777.86 1348.3 1777.86C1209.92 1777.86 1097.74 1665.64 1097.74 1527.22C1097.74 1388.79 1209.92 1276.58 1348.3 1276.58ZM135.719 1234.05H654.645V714.953H135.719V1234.05Z" stroke="#A020FE" stroke-width="2.28378"/>
</g>
</g>
<defs>
<linearGradient id="paint0_linear_2117_143771" x1="720" y1="0" x2="720" y2="2111" gradientUnits="userSpaceOnUse">
<stop offset="0.788462" stop-color="#DEDEDE"/>
<stop offset="1"/>
</linearGradient>
<clipPath id="clip0_2117_143771">
<rect width="1440" height="2111" fill="white"/>
</clipPath>
</defs>
</svg>
