<svg width="327" height="50" fill="none" xmlns="http://www.w3.org/2000/svg">
  <path d="M53.5801 47.045h9.45V30.98h17.955v-8.82h-17.955V11.765h22.995v-8.82h-32.445v44.1zM82.88 47.045h10.08l3.78-10.08h17.01l3.78 10.08h10.08l-17.01-44.1H99.89l-17.01 44.1zM99.89 28.46l5.229-14.49h.252l5.229 14.49H99.89zM131.688 47.045h9.45V19.64l21.42 27.405h8.505v-44.1h-9.45V30.35l-21.42-27.405h-8.505v44.1zM188.683 47.045h9.45v-35.28h12.6v-8.82h-34.65v8.82h12.6v35.28zM206.655 47.045h10.08l3.78-10.08h17.01l3.78 10.08h10.08l-17.01-44.1h-10.71l-17.01 44.1zm17.01-18.585l5.229-14.49h.252l5.229 14.49h-10.71zM268.063 47.99c10.395 0 16.695-6.3 16.695-13.545 0-15.435-22.05-11.97-22.05-19.53 0-2.52 1.89-4.41 6.615-4.41 5.04 0 8.19 3.78 8.19 3.78l6.3-6.3S278.773 2 269.008 2c-10.08 0-16.065 5.985-16.065 12.915 0 15.435 22.05 11.97 22.05 19.53 0 2.835-2.205 5.04-7.245 5.04-6.615 0-10.395-4.725-10.395-4.725l-6.3 6.3s5.67 6.93 17.01 6.93zM299.905 47.045h9.45v-15.75l16.695-28.35h-11.025l-10.269 18.9h-.252l-10.269-18.9H283.21l16.695 28.35v15.75zM49.2 24.6c0 6.8-2.4 12.6-7.2 17.4-4.8 4.8-10.6 7.2-17.4 7.2-6.8 0-12.6-2.4-17.4-7.2C2.4 37.3 0 31.4 0 24.6 0 17.8 2.4 12 7.2 7.2 12 2.4 17.8 0 24.6 0 31.4 0 37.2 2.4 42 7.2c4.8 4.9 7.2 10.7 7.2 17.4zm-1.5.1c-1.9-4.3-4.9-7.7-8.9-10.4-4.2-2.9-9-4.3-14.2-4.3-5.2 0-9.9 1.4-14.2 4.3-4 2.7-7 6.1-8.9 10.4 1.9 4.3 4.9 7.7 8.9 10.4 4.3 2.8 9 4.3 14.2 4.3 5.2 0 9.9-1.4 14.2-4.3 4-2.7 7-6.2 8.9-10.4zm-10-.1c0 3.6-1.3 6.7-3.8 9.2-2.5 2.6-5.6 3.8-9.2 3.8-3.6 0-6.7-1.3-9.2-3.8-2.5-2.5-3.8-5.6-3.8-9.2 0-3.6 1.3-6.7 3.8-9.2 2.5-2.5 5.6-3.8 9.2-3.8 3.6 0 6.7 1.3 9.2 3.8 2.5 2.6 3.8 5.6 3.8 9.2z" fill="#0047d5"/>
</svg>
