<svg viewBox="0 0 2653 474" xmlns="http://www.w3.org/2000/svg" fill-rule="evenodd" clip-rule="evenodd" stroke-linejoin="round" stroke-miterlimit="2">
  <path d="M629.948 389.792h51.654c2.239 0 4.062-1.823 4.062-4.063V265.495h92.474c1.706 0 3.242-1.068 3.815-2.669l16.367-45.222c.964-2.643-.989-5.443-3.815-5.443H685.664v-75.26H824.74c1.705 0 3.229-1.055 3.815-2.656l16.536-45.222c.977-2.643-.989-5.442-3.815-5.442H629.948c-2.253 0-4.063 1.81-4.063 4.062v298.086c0 2.24 1.81 4.063 4.063 4.063zM948.008 285.286l38.711-111.393 37.422 111.393h-76.133zM960.794 86.25L852.37 384.349c-.964 2.643 1.002 5.443 3.815 5.443h53.659c1.731 0 3.281-1.107 3.841-2.748l17.552-51.445h108.815l17.136 51.419c.546 1.654 2.109 2.774 3.854 2.774h53.632c2.813 0 4.779-2.8 3.803-5.456L1009.635 86.25c-.586-1.615-2.109-2.669-3.815-2.669h-41.211c-1.692 0-3.229 1.054-3.815 2.669zM1363.02 271.094L1242.955 85.43c-.742-1.159-2.031-1.849-3.412-1.849h-47.057c-2.24 0-4.063 1.81-4.063 4.062v298.086c0 2.24 1.823 4.063 4.063 4.063h51.667c2.239 0 4.049-1.823 4.049-4.063v-183.88l120.065 186.081c.755 1.159 2.058 1.862 3.425 1.862h47.057c2.253 0 4.062-1.823 4.062-4.063V87.643c0-2.252-1.809-4.062-4.062-4.062h-51.654c-2.252 0-4.075 1.81-4.075 4.062v183.451zM1999.13 282.695c0 35.274-21.081 56.341-53.334 56.341-32.252 0-52.903-21.067-52.903-56.341V87.643c0-2.252-1.81-4.062-4.063-4.062h-51.654c-2.239 0-4.049 1.81-4.049 4.062v197.214c0 64.935 49.883 107.513 112.669 107.513 62.787 0 112.683-42.578 112.683-107.513V87.643c0-2.252-1.823-4.062-4.063-4.062h-51.224c-2.252 0-4.062 1.81-4.062 4.062v195.052zM2357.92 134.219l16.289-45.209c.95-2.643-1.003-5.429-3.815-5.429h-211.081c-2.253 0-4.063 1.81-4.063 4.062v298.086c0 2.24 1.81 4.063 4.063 4.063h211.081c2.812 0 4.765-2.787 3.815-5.443l-16.289-45.208c-.586-1.615-2.11-2.683-3.828-2.683h-139.063v-74.401h111.979c2.253 0 4.063-1.823 4.063-4.062v-45.209c0-2.239-1.81-4.062-4.063-4.062h-111.979v-71.823h139.063c1.718 0 3.242-1.068 3.828-2.682zM2631.84 336.458h-126.51V87.643c0-2.252-1.823-4.062-4.063-4.062h-51.654c-2.239 0-4.062 1.81-4.062 4.062v298.086c0 2.24 1.823 4.063 4.062 4.063h198.633c2.813 0 4.766-2.8 3.815-5.443l-16.406-45.221c-.586-1.602-2.109-2.67-3.815-2.67zM1715.7 112.826c-20.221-20.222-49.036-29.245-80.859-29.245h-121.459c-2.552 0-4.479 2.33-3.971 4.843l8.971 45.209c.378 1.901 2.032 3.268 3.972 3.268h106.901c20.638 0 34.401 6.458 44.726 18.919 11.185 13.763 12.904 33.125 12.904 79.571 0 46.458-1.719 68.385-12.904 82.148-10.325 12.474-24.088 18.919-44.726 18.919h-45.156V177.122c0-2.239-1.823-4.049-4.063-4.049h-51.654c-2.252 0-4.062 1.81-4.062 4.049v208.607c0 2.24 1.81 4.063 4.062 4.063h106.459c31.823 0 60.638-9.037 80.859-29.245 34.401-34.414 30.951-79.141 30.951-125.156 0-46.016 3.45-88.164-30.951-122.565z" fill="#fff" fill-rule="nonzero"/>
  <path d="M239.401 473.255C379.44 391.263 474.505 238.424 474.505 65.729c0-1.406-.742-2.708-1.953-3.398C414.57 29.049 346.589 7.122 275.208 1.471c-1.38-.117-2.734.495-3.567 1.589-18.581 24.375-34.636 50.794-47.774 78.841-.443.938.261 2.018 1.302 1.979 4.011-.117 8.047-.182 12.084-.182 53.268 0 104.049 10.664 150.325 29.961-13.581 105.898-69.544 198.542-150.325 260.364-16.498-12.63-31.954-26.536-46.224-41.575-.938-.99-2.592-.182-2.383 1.159 7.877 49.544 24.166 96.289 47.357 138.711.664 1.211 2.213 1.64 3.398.937z" fill="#4a89c8" fill-rule="nonzero"/>
  <path d="M155.417 289.115c-9.414-13.308-18.034-27.227-25.769-41.68 7.813-3.724 15.847-7.031 24.089-9.935 1.497-.534 2.539-1.901 2.643-3.49 1.966-29.44 6.693-58.112 13.932-85.781.261-.963-.598-1.862-1.575-1.653-24.557 5.104-48.138 12.89-70.404 23.059-5.117-18.164-8.958-36.849-11.406-55.976 32.149-13.399 66.471-22.643 102.305-27.031 1.289-.157 2.396-.99 2.916-2.201 12.461-29.18 27.227-55.273 45.743-82.409.586-.859-.026-2.018-1.068-2.018C148.958.404 71.471 22.943 2.096 62.253.794 62.982 0 64.375 0 65.872c0 148.789 74.167 289.323 187.539 375.547 1.107.834 2.604-.325 2.07-1.614-18.997-46.315-30.664-96.433-33.554-148.881-.039-.651-.248-1.276-.638-1.809z" fill="#4a89c8" fill-rule="nonzero"/>
</svg>
