<svg width="1085" height="163" viewBox="0 0 1085 163" fill="none" xmlns="http://www.w3.org/2000/svg">
<g clip-path="url(#clip0_6156_2539)">
<path d="M257.397 57.2025C260.476 54.2031 265.015 52.7034 271.024 52.7034H324.261V81.1976H285.402V160.682H252.783V70.2713C252.783 64.5609 254.318 60.2019 257.397 57.2025Z" fill="white"/>
<path d="M638.243 52.7028L655.411 129.616L659.918 152.54H655.939L672.678 52.7028H727.566L744.52 152.54H740.327L744.619 129.83L761.787 52.7028H792.904L769.298 160.681H714.261L697.522 60.844H702.508L686.198 160.681H629.874L607.126 52.7028H638.243Z" fill="white"/>
<path d="M793.667 132.187H823.711V81.1977H798.173V52.7035H836.801C842.232 52.7035 846.425 54.096 849.355 56.8812C852.285 59.6663 853.754 63.8441 853.754 69.4144V132.187H884.442V160.682H793.667V132.187Z" fill="white"/>
<path d="M855.289 26.6727C855.289 37.9724 846.138 47.1326 834.849 47.1326C823.561 47.1326 814.41 37.9724 814.41 26.6727C814.41 15.373 823.561 6.21277 834.849 6.21277C846.138 6.21277 855.289 15.373 855.289 26.6727Z" fill="white"/>
<path d="M896.588 57.2019C899.666 54.2025 904.206 52.7028 910.215 52.7028H963.452V81.197H924.593V160.681H891.974V70.2706C891.974 64.5603 893.509 60.2012 896.588 57.2019Z" fill="white"/>
<path d="M1062.35 95.9811L1046.68 109.478V98.7662C1046.68 91.1936 1044.46 85.2689 1040.03 80.9841C1035.59 76.6992 1029.52 74.5568 1021.79 74.5568C1016.64 74.5568 1012.24 75.5209 1008.59 77.4491C1004.95 79.3773 1002.08 82.1954 1000.01 85.9117C997.938 89.6279 996.898 94.0529 996.898 99.1947L997.112 110.55C997.253 119.119 999.506 125.868 1003.87 130.795C1008.24 135.723 1014.35 138.187 1022.22 138.187C1028.66 138.187 1033.98 136.827 1038.21 134.116C1042.43 131.405 1045.11 127.549 1046.26 122.547H1078.66C1076.94 134.833 1071.22 144.614 1061.49 151.898C1051.76 159.183 1038.74 162.825 1022.44 162.825C1010.56 162.825 1000.26 160.435 991.533 155.648C982.8 150.868 976.115 144.186 971.468 135.616C966.821 127.046 964.493 117.191 964.493 106.05C964.493 94.9098 966.887 84.9146 971.682 76.485C976.478 68.0554 983.13 61.6281 991.64 57.2032C1000.15 52.7782 1009.91 50.5616 1020.93 50.5616C1032.81 50.5616 1043.07 52.7041 1051.73 56.9889C1060.38 61.2738 1067 67.4538 1071.58 75.5209C1076.15 83.5879 1078.45 93.2701 1078.45 104.551V113.549H992.606V95.9811H1062.35Z" fill="white"/>
<path fill-rule="evenodd" clip-rule="evenodd" d="M321.389 106.692C321.389 75.6931 346.563 50.5608 377.614 50.5608C408.665 50.5608 433.839 75.6931 433.839 106.692C433.839 137.692 408.665 162.824 377.614 162.824C346.563 162.824 321.389 137.692 321.389 106.692ZM377.614 81.5811C363.759 81.5811 352.528 92.8238 352.528 106.692C352.528 120.561 363.759 131.804 377.614 131.804C391.469 131.804 402.701 120.561 402.701 106.692C402.701 92.8238 391.469 81.5811 377.614 81.5811Z" fill="white"/>
<path fill-rule="evenodd" clip-rule="evenodd" d="M499.352 106.693C499.352 75.6941 524.526 50.5618 555.577 50.5618C586.628 50.5618 611.802 75.6941 611.802 106.693C611.802 137.693 586.628 162.825 555.577 162.825C524.526 162.825 499.352 137.693 499.352 106.693ZM555.25 81.582C541.395 81.582 530.164 92.8247 530.164 106.693C530.164 120.562 541.395 131.805 555.25 131.805C569.105 131.805 580.337 120.562 580.337 106.693C580.337 92.8247 569.105 81.582 555.25 81.582Z" fill="white"/>
<path d="M469.141 132.517H494.679V161.011H456.051C450.62 161.011 446.427 159.618 443.496 156.833C440.566 154.048 439.097 149.87 439.097 144.3V22.0583H469.141V53.0329H499.185V81.5271H469.141V132.517Z" fill="white"/>
</g>
<path fill-rule="evenodd" clip-rule="evenodd" d="M112.29 0.443682C141.474 1.11136 164.928 25.1014 164.928 54.5978C164.928 83.2831 142.746 106.761 114.684 108.644C113.651 108.714 113.09 109.933 113.74 110.743L151.879 158.238C152.537 159.058 151.957 160.278 150.909 160.278L98.1719 160.278C97.7953 160.278 97.4389 160.106 97.2023 159.812L58.0442 111.046C57.3061 110.127 55.8286 110.652 55.8286 111.833V159.231C55.8286 159.923 55.2667 160.485 54.5788 160.47C25.3948 159.802 1.94092 135.812 1.94092 106.315C1.94092 77.6057 24.1606 54.1124 52.2565 52.2642C53.2908 52.1961 53.8529 50.9764 53.2019 50.1657L15.0671 2.67478C14.4093 1.8556 14.9894 0.63564 16.0367 0.63564H68.7743C69.1509 0.63564 69.5073 0.806865 69.7438 1.10144L108.824 49.7702C109.562 50.6893 111.04 50.1647 111.04 48.9835V1.68187C111.04 0.990148 111.602 0.427943 112.29 0.443682ZM111.04 108.193C111.04 108.196 111.038 108.198 111.035 108.198C111.032 108.198 111.03 108.196 111.03 108.193V108.202H55.8303V108.197C55.8303 108.198 55.8307 108.197 55.8303 108.197C55.8301 108.197 55.8291 108.198 55.829 108.198C55.8288 108.198 55.829 108.198 55.829 108.198L55.8286 53.9675C55.8286 53.9459 55.8292 53.9244 55.8303 53.9031V52.7152H57.0541C57.0609 52.7151 57.0678 52.7151 57.0746 52.7151H109.794C109.801 52.7151 109.808 52.7151 109.815 52.7152H111.03V53.8048C111.036 53.8581 111.04 53.9124 111.04 53.9675L111.04 108.193Z" fill="#A020FE"/>
<path d="M176.859 111.184C163.224 111.184 152.17 122.295 152.17 136.001C152.17 149.708 163.224 160.819 176.859 160.819C190.494 160.819 201.548 149.708 201.548 136.001C201.548 122.295 190.494 111.184 176.859 111.184Z" fill="#A020FE"/>
<defs>
<clipPath id="clip0_6156_2539">
<rect width="832.219" height="156.611" fill="white" transform="translate(252.783 6.21277)"/>
</clipPath>
</defs>
</svg>
