<svg viewBox="0 0 2242 767" xmlns="http://www.w3.org/2000/svg" fill-rule="evenodd" clip-rule="evenodd" stroke-linejoin="round" stroke-miterlimit="2">
  <g fill-rule="nonzero">
    <path d="M193.612 420.837c16.292 0 29.25-3.225 38.871-9.674 9.625-6.455 14.446-15.271 14.446-26.45 0-6.955-2.225-12.784-6.671-17.501-5.925-5.962-16.533-8.937-31.837-8.937h-38.875l-17.033 62.562h41.099zm-79.783-124.404h97.742c21.721 0 39.862 2.359 54.417 7.038 14.55 4.696 26.12 11.358 34.72 19.996 6.871 6.925 11.913 14.879 15.104 23.891 3.192 9.013 4.792 18.692 4.792 29.063 0 21.721-6.266 40.662-18.787 56.821-12.529 16.175-32.121 27.841-58.775 34.987l39.987 87.388h-79.233l-34.434-78.5h-31.837l-21.1 78.5H44.221l69.608-259.184zM454.717 498.396c10.837 0 20.666-2.363 29.504-7.113 8.833-4.725 16.308-10.946 22.437-18.65 6.125-7.7 10.888-16.225 14.313-25.583 3.421-9.358 5.125-18.658 5.125-27.896 0-7.821-1.179-15.108-3.533-21.858-2.359-6.759-5.834-12.604-10.425-17.596-4.601-4.967-10.25-8.808-16.967-11.533-6.713-2.721-14.421-4.096-23.138-4.096-10.837 0-20.612 2.375-29.329 7.116-8.717 4.738-16.196 10.959-22.437 18.655-6.242 7.691-11.071 16.233-14.492 25.575-3.417 9.37-5.125 18.658-5.125 27.895 0 7.821 1.183 15.109 3.529 21.863 2.359 6.754 5.833 12.612 10.434 17.592 4.591 4.962 10.245 8.821 16.958 11.546 6.712 2.725 14.429 4.083 23.146 4.083zm-6.088 61.842c-17.771 0-33.937-2.859-48.512-8.546-14.567-5.684-27.067-13.496-37.488-23.438-10.429-9.958-18.475-21.742-24.162-35.371-5.688-13.612-8.53-28.362-8.53-44.233 0-18.954 3.671-37.262 11.017-54.908 7.333-17.642 17.588-33.221 30.742-46.73 13.146-13.491 28.783-24.333 46.904-32.516 18.125-8.167 37.967-12.263 59.521-12.263 17.771 0 33.937 2.859 48.512 8.542 14.567 5.683 27.059 13.508 37.484 23.437 10.425 9.959 18.479 21.759 24.166 35.371 5.684 13.617 8.53 28.38 8.53 44.23 0 18.954-3.68 37.266-11.021 54.912-7.338 17.646-17.584 33.233-30.73 46.729-13.154 13.496-28.791 24.329-46.908 32.513-18.129 8.183-37.966 12.271-59.525 12.271zM662.683 367.271h-66.291l16.341-60.421h209.5l-15.987 60.421h-74.625l-50.458 188.346h-69.3l50.82-188.346zM914.542 498.396c10.837 0 20.671-2.363 29.504-7.113 8.837-4.725 16.312-10.946 22.437-18.65 6.125-7.7 10.892-16.225 14.317-25.583 3.417-9.358 5.125-18.658 5.125-27.896 0-7.821-1.183-15.108-3.538-21.858-2.354-6.759-5.833-12.604-10.425-17.596-4.599-4.967-10.249-8.808-16.962-11.533-6.717-2.721-14.425-4.096-23.142-4.096-10.837 0-20.612 2.375-29.329 7.116-8.712 4.738-16.196 10.959-22.433 18.655-6.242 7.691-11.075 16.233-14.492 25.575-3.416 9.37-5.125 18.658-5.125 27.895 0 7.821 1.183 15.109 3.529 21.863 2.359 6.754 5.834 12.612 10.434 17.592 4.591 4.962 10.245 8.821 16.958 11.546 6.712 2.725 14.425 4.083 23.142 4.083zm-6.084 61.842c-17.775 0-33.937-2.859-48.512-8.546-14.567-5.684-27.067-13.496-37.483-23.438-10.434-9.958-18.48-21.742-24.167-35.371-5.688-13.612-8.529-28.362-8.529-44.233 0-18.954 3.671-37.262 11.016-54.908 7.334-17.642 17.588-33.221 30.738-46.73 13.15-13.491 28.787-24.333 46.904-32.516 18.125-8.167 37.967-12.263 59.521-12.263 17.775 0 33.937 2.859 48.512 8.542 14.571 5.683 27.063 13.508 37.488 23.437 10.425 9.959 18.471 21.759 24.154 35.371 5.687 13.617 8.546 28.38 8.546 44.23 0 18.954-3.688 37.266-11.025 54.912-7.342 17.646-17.592 33.233-30.725 46.729-13.163 13.496-28.796 24.329-46.917 32.513-18.125 8.183-37.966 12.271-59.521 12.271zM1072.11 306.85h71.425l8.779 143.938 73.513-140.463h59.692l9.595 140.463 69.238-143.938h74.971l-129.484 250.529h-61.824l-15.538-133.096-66.229 133.096h-69.813L1072.11 306.85zM1465.63 306.85h68.938l-66.8 248.767h-68.942l66.804-248.767zM1655.73 426.254c15.63 0 28.071-3.096 37.321-9.287 9.234-6.192 13.854-14.654 13.854-25.388 0-6.671-2.133-12.266-6.391-16.792-5.688-5.725-15.884-8.579-30.567-8.579h-37.317l-16.337 60.046h39.437zm-76.571-119.404h93.817c20.838 0 38.254 2.267 52.229 6.758 13.963 4.509 25.067 10.9 33.313 19.192 6.608 6.646 11.441 14.279 14.512 22.929 3.054 8.65 4.588 17.942 4.588 27.896 0 20.846-6.017 39.025-18.034 54.537-12.02 15.521-30.816 26.721-56.404 33.58l38.375 83.875h-76.041l-33.046-75.346h-30.563l-20.266 75.346h-69.284l66.804-248.767zM1835.19 306.85h199.354l-15.988 58.65h-130.779l-10.308 37.667h118.687l-14.562 54.375h-118.7l-10.646 39.425h132.896l-15.629 58.65h-201.13l66.805-248.767z" fill="#fff"/>
    <path d="M1561.15 215.808c0 23.625-19.966 42.792-44.579 42.792-24.608 0-44.55-19.167-44.55-42.792s19.942-42.816 44.55-42.816c24.613 0 44.579 19.191 44.579 42.816z" fill="#ec2c2e"/>
    <path d="M1441.73 225.233l-128.763-30.966 11.892 30.245-109.191-8.037 140.679 32.942-11.904-29.575 97.287 5.391zM1455.02 172.779l-58.796-89.35-21.704 28.217-72.792-60.492 70.696 94.071 21.008-27.546 61.588 55.1zM1517.3 155.317l53.179-90.704-39.883 6.7L1545.279.087l-51.067 92.738 39.85-6.725-16.762 69.217z" fill="#faeb28"/>
    <path d="M1619.45 124.404l127.363-53.091-81.875 53.762 37.083 13.454-121.063 45.7 72.801-48.396-34.309-11.429z" fill="#f6e53e"/>
    <path d="M1591.48 225.233l128.746 28.855-11.208-28.855 118.975 9.371-149.758-31.579 10.516 26.212-97.271-4.004zM2138.97 599.675l-.987 5.017-14.896 44.05-40.884-143.709-.345-1.591-36.655 138.462H-.007v13.667h2055.73l.321-1.229-.217 1.058 25.388-40.829 38.679 127.316 2.683 12.28 27.63-140.821h76.383v-13.671h-87.621z" fill="#faeb28"/>
  </g>
</svg>
