<svg xmlns="http://www.w3.org/2000/svg" viewBox="0 0 135 26" fill="#fff">
  <path fill="#00aff0" d="M129.08 2.099a19.108 19.108 0 013.35 10.847c0 3.908-1.159 7.663-3.364 10.86-.391.558-.237 1.326.321 1.717.558.39 1.326.251 1.703-.321a21.556 21.556 0 003.797-12.256c0-4.397-1.312-8.627-3.783-12.243-.377-.558-1.145-.697-1.717-.32a1.259 1.259 0 00-.307 1.716"/>
  <path fill="#00aff0" d="M125.185 22.145a1.245 1.245 0 001.731-.251 14.741 14.741 0 002.973-8.92c0-3.28-1.046-6.38-3.015-8.976-.405-.545-1.186-.642-1.73-.237a1.242 1.242 0 00-.238 1.73 12.319 12.319 0 012.527 7.497c0 2.708-.852 5.276-2.485 7.44a1.213 1.213 0 00.237 1.717"/>
  <path fill="#00aff0" d="M120.802 19.13c.53.432 1.312.335 1.731-.196a9.689 9.689 0 002.122-6.044c0-2.178-.712-4.23-2.038-5.933a1.227 1.227 0 00-1.731-.21 1.238 1.238 0 00-.21 1.732 7.143 7.143 0 011.522 4.425 7.09 7.09 0 01-1.577 4.495 1.223 1.223 0 00.181 1.73M5.918 23.807a19.06 19.06 0 01-3.364-10.86c0-3.895 1.158-7.65 3.35-10.847A1.249 1.249 0 005.583.382 1.217 1.217 0 003.88.703 21.604 21.604 0 00.097 12.946c0 4.41 1.312 8.64 3.797 12.256.39.558 1.159.698 1.717.32.558-.39.698-1.158.307-1.716 0 0 .39.558 0 0 0 0 .39.558 0 0z"/>
  <path fill="#00aff0" d="M10.092 5.491a1.242 1.242 0 00-.238-1.73 1.242 1.242 0 00-1.73.237c-1.983 2.596-3.017 5.71-3.017 8.976a14.74 14.74 0 002.974 8.92 1.228 1.228 0 001.717.25 1.213 1.213 0 00.237-1.716 12.326 12.326 0 01-2.485-7.44c.014-2.736.88-5.333 2.54-7.497z"/>
  <path fill="#00aff0" d="M10.329 12.904a9.69 9.69 0 002.122 6.044c.433.53 1.2.614 1.73.196.531-.433.615-1.2.182-1.731a7.114 7.114 0 01-1.577-4.495c0-1.62.53-3.155 1.521-4.425a1.24 1.24 0 00-.209-1.731 1.24 1.24 0 00-1.73.21c-1.341 1.702-2.039 3.754-2.039 5.932 0 0 0-2.178 0 0 0 0 0-2.178 0 0z"/>
  <path d="M22.208 15.64c0 .572.224 1.005.6 1.298.35.265.838.433 1.383.433.865 0 1.786-.265 1.786-1.27 0-2.276-8.71-.461-8.71-5.975 0-3.643 3.769-4.69 6.728-4.69 3.1 0 6.728.712 7.063 4.48h-5.123a1.532 1.532 0 00-.544-1.032c-.293-.252-.712-.35-1.145-.35-.977 0-1.605.294-1.605 1.006 0 1.982 8.976.656 8.976 5.974 0 2.96-2.443 4.97-7.65 4.97-3.252 0-6.84-1.005-7.133-4.83h5.374v-.014zM32.566 5.45h4.579v2.191h-4.579zm0 14.685V8.576h4.579v11.559zM38.373 8.59h4.174v2.332h.042c.642-1.801 1.759-2.667 3.545-2.667.196 0 .391.042.6.07v4.579c-.306-.042-.641-.126-.949-.126-1.87 0-2.82.88-2.82 3.378v3.993h-4.592V8.59zm9.325-3.14h4.592v2.191h-4.592zm0 14.685V8.576h4.592v11.559zm18.272 0h-4.257v-1.703c-1.145 1.591-2.276 2.024-4.16 2.024-2.513 0-4.146-1.536-4.146-4.844V8.575h4.579v6.24c0 1.592.558 2.094 1.647 2.094 1.326 0 1.745-.991 1.745-2.778V8.576h4.578v11.559h.014zm4.858-3.588c0 .46.182.81.489 1.061.293.223.684.349 1.13.349.712 0 1.452-.223 1.452-1.033 0-1.857-7.077-.377-7.077-4.844 0-2.96 3.07-3.81 5.472-3.81 2.513 0 5.472.572 5.737 3.643h-4.16c-.042-.377-.195-.642-.446-.838-.238-.195-.573-.279-.922-.279-.795 0-1.298.237-1.298.81 0 1.605 7.3.53 7.3 4.843 0 2.401-1.981 4.035-6.211 4.035-2.652 0-5.556-.81-5.793-3.923h4.327v-.014z"/>
  <path d="M82.931 12.625l-4.69-6.785h6.267l1.787 3.56 1.898-3.56h6.184l-4.857 6.757 4.913 7.468h-6.295l-2.011-4.076-2.066 4.076h-6.239zM94.797 5.84h5.178v2.122c.712-1.089 1.982-2.526 4.02-2.526 2.36 0 3.783 1.088 4.453 2.596 1.229-1.703 2.29-2.596 4.355-2.596 3.574 0 5.347 2.33 5.347 6.211v8.418h-5.64V12.82c0-2.094-.14-2.931-1.633-2.931-1.591 0-1.577 1.437-1.577 3.14v7.036h-5.64V12.82c0-2.094-.125-2.89-1.633-2.931-1.55-.042-1.591 1.437-1.591 3.14v7.036h-5.64V5.84zm23.157-2.554c-.837 0-1.521.684-1.521 1.521v.014a1.51 1.51 0 001.507 1.508c.838 0 1.522-.684 1.522-1.508v-.014c0-.837-.684-1.521-1.508-1.521zm-.014 2.834a1.29 1.29 0 01-1.298-1.313v-.012c0-.74.573-1.313 1.312-1.313a1.29 1.29 0 011.299 1.313v.013c0 .74-.573 1.313-1.313 1.313z"/>
  <path d="M118.638 4.486a.453.453 0 00-.125-.335c-.112-.111-.265-.167-.475-.167h-.698v1.563h.293v-.544h.335l.377.544h.35l-.42-.586c.21-.07.363-.223.363-.475zm-.614.252h-.39v-.489h.39c.196 0 .307.084.307.237V4.5c0 .154-.111.238-.307.238z"/>
</svg>
