<svg width="101" height="100" viewBox="0 0 101 100" fill="none" xmlns="http://www.w3.org/2000/svg">
<rect x="0.75" width="100" height="100" rx="13.8889" fill="#203150"/>
<path fill-rule="evenodd" clip-rule="evenodd" d="M52.7036 22.3625C55.4179 21.5283 57.3911 19.0014 57.3911 16.0137C57.3911 12.3461 54.4181 9.37305 50.7505 9.37305C47.0829 9.37305 44.1099 12.3461 44.1099 16.0137C44.1099 19.0014 46.0831 21.5283 48.7974 22.3625V28.3705C40.3815 28.8213 32.7349 32.1674 26.8353 37.4307C20.1331 43.5592 17.7427 51.99 17.7427 60.7402C17.7427 72.6715 22.6698 84.4602 35.3224 88.1234C40.3099 89.1225 45.469 89.6465 50.7505 89.6465C56.0319 89.6465 61.1911 89.1225 66.1786 88.1234C78.8311 84.4602 83.7583 72.6715 83.7583 60.7402C83.7583 51.9902 81.3679 43.5592 74.6659 37.4309C68.7663 32.1674 61.1194 28.8213 52.7036 28.3705V22.3625Z" fill="#15263A"/>
<path d="M50.7505 9.37305C47.0829 9.37305 44.1099 12.3461 44.1099 16.0137C44.1099 19.0014 46.0831 21.5283 48.7974 22.3625V28.3711L48.7915 28.3709C40.378 28.8229 32.7335 32.1686 26.8353 37.4307C20.1331 43.5592 17.7427 51.99 17.7427 60.7402C17.7427 72.6715 22.6698 84.4602 35.3224 88.1234C37.743 88.6081 40.1853 88.9776 42.6409 89.2307C33.547 87.283 26.3651 80.0557 24.3595 70.9871L24.3153 70.873C23.7567 69.4137 23.4067 67.8896 23.4067 66.4043C23.4067 60.4014 27.2757 55.302 32.656 53.4635C34.7923 52.7336 37.1761 52.5371 39.4224 52.5371C41.3009 52.5371 43.1794 52.6344 45.0618 52.7318L45.4165 52.7502C46.2644 52.7938 47.113 52.8363 47.963 52.8688C39.6604 52.2602 33.1724 47.01 33.1724 40.623C33.1724 35.3756 37.5521 30.8953 43.7192 29.1264C43.7192 29.1264 45.3851 28.7301 46.4536 28.6113C47.5263 28.492 49.2019 28.5168 49.2019 28.5168C50.5038 27.8799 51.6585 25.4613 52.313 22.459C49.3952 21.5297 47.2349 18.8488 47.2349 15.623C47.2349 12.9555 48.6003 10.625 50.7505 9.37305Z" fill="url(#paint0_radial_2107_74663)"/>
<path fill-rule="evenodd" clip-rule="evenodd" d="M57.3913 16.0137C57.3913 19.0014 55.418 21.5283 52.7038 22.3625V28.3705C61.1196 28.8213 68.7665 32.1674 74.6659 37.4309C81.368 43.5592 83.7585 51.9902 83.7585 60.7402C83.7585 72.6715 78.8313 84.4602 66.1788 88.1234C61.1913 89.1225 56.0321 89.6465 50.7506 89.6465C48.0122 89.6465 45.3067 89.5057 42.6409 89.2307C33.5469 87.283 26.3653 80.0557 24.3596 70.9871C24.9901 72.5992 25.8721 74.1285 26.8135 75.435C29.1639 78.6961 32.5157 81.1875 36.4182 82.4588C40.9524 83.9359 46.0684 83.9824 50.7506 83.9824C55.4327 83.9824 60.5489 83.9359 65.0831 82.4588C68.9856 81.1875 72.3374 78.6961 74.6876 75.435C76.5018 72.9178 78.0944 69.5732 78.0944 66.4043C78.0944 60.4014 74.2254 55.302 68.8452 53.4635C66.7088 52.7336 64.3251 52.5371 62.0788 52.5371C60.2002 52.5371 58.3217 52.6344 56.4391 52.7318C54.5485 52.8297 52.6538 52.9277 50.7506 52.9277C49.8196 52.9277 48.8907 52.9043 47.9631 52.8687C39.6604 52.2602 33.1725 47.01 33.1725 40.623C33.1725 35.3756 37.552 30.8953 43.7194 29.1264C43.7194 29.1264 45.3852 28.7301 46.4538 28.6113C47.5262 28.492 49.202 28.5168 49.202 28.5168C50.504 27.8799 51.6586 25.4613 52.3131 22.459C49.3954 21.5297 47.235 18.8488 47.235 15.623C47.235 12.9555 48.6002 10.625 50.7506 9.37305C54.418 9.37305 57.3913 12.3461 57.3913 16.0137ZM54.3471 32.1725C53.1221 32.9736 52.3131 34.357 52.3131 35.9293C52.3131 41.7353 61.7975 42.2865 65.8116 41.9762C70.893 41.583 76.6524 41.9805 80.6335 45.5059C80.3927 45.0013 80.1365 44.5043 79.8651 44.0156C79.0793 42.599 78.1629 41.2589 77.1276 40.0129C76.3631 39.0941 75.5366 38.2287 74.654 37.4228C72.5258 35.5249 70.1798 33.8864 67.6651 32.5418C66.6308 31.989 65.5699 31.4875 64.4864 31.0389C63.2627 30.6584 61.9885 30.4655 60.7071 30.4668C58.5573 30.4668 56.1727 30.9779 54.3471 32.1725Z" fill="url(#paint1_linear_2107_74663)"/>
<path d="M48.8011 28.3706L48.7913 28.3703L48.8011 28.3696V28.3706Z" fill="url(#paint2_linear_2107_74663)"/>
<path d="M52.3127 35.9288C52.3127 34.3565 53.1219 32.9732 54.3467 32.172C56.1723 30.9774 58.5571 30.4663 60.7067 30.4663C61.9881 30.465 63.2623 30.6579 64.486 31.0384C65.5695 31.487 66.6304 31.9886 67.6647 32.5413C70.1794 33.8858 72.5254 35.5243 74.6536 37.4224C75.5363 38.2282 76.3628 39.0936 77.1272 40.0124C78.1625 41.2584 79.0789 42.5985 79.8647 44.0151C80.1362 44.5038 80.3924 45.0008 80.6331 45.5054C76.652 41.98 70.8928 41.5825 65.8112 41.9757C61.7971 42.286 52.3127 41.7349 52.3127 35.9288Z" fill="white"/>
<path d="M29.656 62.3052C31.8726 72.0813 36.638 73.0474 40.525 73.0474C42.3867 73.0474 44.1394 72.3767 45.6716 71.539L29.656 62.3052Z" fill="url(#paint3_linear_2107_74663)"/>
<path d="M71.8442 62.3052C69.6276 72.0813 64.8622 73.0474 60.9753 73.0474C59.1136 73.0474 57.3608 72.3767 55.8286 71.539L71.8442 62.3052Z" fill="url(#paint4_linear_2107_74663)"/>
<defs>
<radialGradient id="paint0_radial_2107_74663" cx="0" cy="0" r="1" gradientUnits="userSpaceOnUse" gradientTransform="translate(38.6985 48.1328) rotate(150.36) scale(24.1107 43.2902)">
<stop stop-color="#192A42"/>
<stop offset="1" stop-color="#62728F"/>
</radialGradient>
<linearGradient id="paint1_linear_2107_74663" x1="73.4778" y1="36.7168" x2="33.5432" y2="80.6305" gradientUnits="userSpaceOnUse">
<stop stop-color="#EEF2F7"/>
<stop offset="1" stop-color="#A3B1D3"/>
</linearGradient>
<linearGradient id="paint2_linear_2107_74663" x1="90.144" y1="42.3722" x2="23.1364" y2="115.944" gradientUnits="userSpaceOnUse">
<stop stop-color="#EEF2F7"/>
<stop offset="1" stop-color="#A3B1D3"/>
</linearGradient>
<linearGradient id="paint3_linear_2107_74663" x1="37.6638" y1="62.3052" x2="37.6638" y2="72.852" gradientUnits="userSpaceOnUse">
<stop stop-color="#00FFC6"/>
<stop offset="1" stop-color="#00BAE9"/>
</linearGradient>
<linearGradient id="paint4_linear_2107_74663" x1="63.8364" y1="62.3052" x2="63.8364" y2="72.852" gradientUnits="userSpaceOnUse">
<stop stop-color="#00FFC6"/>
<stop offset="1" stop-color="#00BAE9"/>
</linearGradient>
</defs>
</svg>
